# xmcd CD database file
#
# Track frame offsets:
#	150
#	1053
#	59201
#	125613
#	182211
#	219575
#	272436
#
# Disc length: 4302 seconds
#
# Revision: 0
# Processed by: cddbd v1.5.1PL2 Copyright (c) Steve Scherf et al.
# Submitted via: CDex 1.51
#
DISCID=6410cc07
DTITLE=Celestial 7 - Golden Atlantis
DYEAR=1900
DGENRE=New Age
TTITLE0=The Law Of One
TTITLE1=Golden Atlantis
TTITLE2=The Mighty Thoth
TTITLE3=Isis
TTITLE4=The Dolphins Tail
TTITLE5=The Great Crystal
TTITLE6=Mary's Journey
EXTD=
EXTT0=
EXTT1=
EXTT2=
EXTT3=
EXTT4=
EXTT5=
EXTT6=
PLAYORDER=
